<svg xmlns="http://www.w3.org/2000/svg" width="730" height="680.5" viewBox="0 0 730 680.5" xmlns:xlink="http://www.w3.org/1999/xlink" role="img" artist="Katerina Limpitsouni"><path d="m372.63,172.93c6.61-3.28,15.19.54,19.15,8.53,2.26,4.57,2.52,9.5,1.1,13.51l.09.18,25.99,46.27,46.51-24.45c8.72-5.37,19.22-6.82,25.3,1.43h0c7.52,10.22,3.56,24.78-8.11,29.77l-60.69,25.95c-8.62,3.69-18.6-.32-22.27-8.95l-21.78-62.77c-4.05-1.3-7.82-4.49-10.08-9.06-3.96-7.99-1.81-17.13,4.8-20.4Z" fill="#ffb6b6" stroke="#06060f" stroke-miterlimit="10" stroke-width="1.5"/><polyline points="484.68 203.12 431.09 229.79 451.4 269.14 505.34 237.27" fill="#6c63ff" stroke="#06060f" stroke-miterlimit="10" stroke-width="1.5"/><path d="m675.04,676.97s-.04-.06-.05-.09c-.01-.03,0-.06-.02-.09-.04-.05-.08-.1-.12-.15-.15-.13-.31-.25-.46-.37.32-7.83.45-15.86-2.76-23.18-2.98-6.52-8.47-11.58-14.77-14.86-2.75-1.43-5.63-2.6-8.79-2.38-2.69.19-5.22,1.25-7.3,2.95-4.25,3.47-6.16,9.48-4.25,14.69,2.39,6.53,9.09,10.71,15.13,13.4,7.13,3.17,15,5.17,21.22,10.08,0,.06.02.11.02.17.02.1.07.18.13.26.03.06.08.1.13.13.07.07.16.11.26.13l.62.2s.06.02.09.03c.03.01.07,0,.1,0,.03,0,.06.02.1.02.02,0,.04-.01.07-.01.01,0,.02,0,.03,0,.03,0,.06-.02.09-.03.03,0,.07,0,.1-.02.01,0,.02-.01.03-.02.02,0,.04,0,.06-.02.03-.02.05-.05.07-.07.03-.02.06-.03.08-.05.02-.03.04-.05.06-.08.02-.03.04-.05.06-.08.01-.02,0-.05.02-.07.02-.04.05-.07.06-.11,0-.07.02-.13.03-.2,0-.07-.02-.13-.03-.2Z" fill="#63ffae" stroke="#06060f" stroke-miterlimit="10" stroke-width="1.5"/><path d="m704.72,637.17c-2.84-3.77-7.5-5.5-12.11-4.6-3.93.84-7.8,2.46-10.8,5.2-3.15,2.87-4.96,6.85-6.2,10.86-2.91,9.4-3.5,19.44-2,29.15.04.23.29.48.52.52,2.14.4,4.13.87,6.33.61,2.53-.3,4.94-1.23,7.12-2.56,4.57-2.79,8.36-7.06,11.5-11.34,3.23-4.41,5.78-9.38,7.17-14.68,1.2-4.59,1.46-9.19-1.53-13.16Z" fill="#63ffae" stroke="#06060f" stroke-miterlimit="10" stroke-width="1.5"/><polyline points="0 679.75 115.54 679.75 147.13 679.75 148.4 679.75 176.21 679.75 366.66 679.75 411.98 679.75 730 679.75" fill="none" stroke="#06060f" stroke-miterlimit="10" stroke-width="1.5"/><path d="m343.32,679.53h-208.32c-34.07,0-61.79-27.72-61.79-61.79V62.54C73.22,28.47,100.93.75,135.01.75h208.32c34.07,0,61.79,27.72,61.79,61.79v555.2c0,34.07-27.72,61.79-61.79,61.79Z" fill="#fff" stroke="#06060f" stroke-miterlimit="10" stroke-width="1.5"/><path d="m267,50h-57.81c-7.67,0-13.92-6.24-13.92-13.92s6.24-13.92,13.92-13.92h57.81c7.67,0,13.92,6.24,13.92,13.92s-6.24,13.92-13.92,13.92Z" fill="#fff" stroke="#06060f" stroke-miterlimit="10" stroke-width="1.5"/><circle cx="165.87" cy="284.59" r="16.59" fill="#fff" stroke="#06060f" stroke-miterlimit="10" stroke-width="1.5"/><circle cx="165.87" cy="284.59" r="6.64" fill="#6c63ff" stroke="#06060f" stroke-miterlimit="10" stroke-width="1.5"/><line x1="197.27" y1="284.59" x2="253.17" y2="284.59" fill="none" stroke="#06060f" stroke-miterlimit="10" stroke-width="1.5"/><circle cx="165.87" cy="342.09" r="16.59" fill="#fff" stroke="#06060f" stroke-miterlimit="10" stroke-width="1.5"/><line x1="197.27" y1="342.09" x2="320.2" y2="342.09" fill="none" stroke="#06060f" stroke-miterlimit="10" stroke-width="1.5"/><circle cx="165.87" cy="399.6" r="16.59" fill="#fff" stroke="#06060f" stroke-miterlimit="10" stroke-width="1.5"/><line x1="197.27" y1="399.6" x2="329.04" y2="399.6" fill="none" stroke="#06060f" stroke-miterlimit="10" stroke-width="1.5"/><rect x="405.87" y="634.49" width="20.1" height="26.49" fill="#ffb6b6" stroke="#06060f" stroke-miterlimit="10" stroke-width="1.5"/><path d="m422.54,679.26h-42.72c-3.65,0-7.32-.84-10.61-2.42l-7.88-3.79c-1.63-.78-2.68-2.46-2.68-4.26,0-2.12,1.43-3.99,3.47-4.56l16.25-4.5,27.79-14.61.02.11c.52,2.63,1.33,6.61,1.43,6.85,2.85,3.27,5.78,4.77,8.7,4.47,5.1-.52,8.49-6.41,8.53-6.47l.03-.05h.05c1.19.13,2.08.61,2.63,1.44,1.16,1.75.45,4.46.34,4.86,1.39,1.36,2.02,8.98,2.07,9.59,2.02,2.14,2.97,4.19,2.85,6.1-.11,1.67-1.04,3.23-2.76,4.62-2.07,1.67-4.73,2.6-7.5,2.6Z" fill="#06060f" stroke="#06060f" stroke-miterlimit="10" stroke-width="1.5"/><rect x="542.51" y="624.69" width="20.1" height="26.49" transform="translate(-156.2 179.74) rotate(-16.22)" fill="#ffb6b6" stroke="#06060f" stroke-miterlimit="10" stroke-width="1.5"/><path d="m567.72,666.36l-41.02,11.93c-3.51,1.02-7.26,1.24-10.86.64l-8.62-1.44c-1.78-.3-3.26-1.61-3.76-3.34-.59-2.03.25-4.23,2.06-5.35l14.34-8.86,22.61-21.79.05.1c1.23,2.38,3.12,5.98,3.28,6.18,3.65,2.34,6.88,2.97,9.61,1.86,4.75-1.92,6.36-8.52,6.38-8.59v-.05s.06,0,.06,0c1.18-.21,2.16,0,2.92.64,1.61,1.36,1.68,4.15,1.68,4.58,1.72.92,4.45,8.06,4.66,8.63,2.53,1.49,4.02,3.19,4.44,5.07.36,1.64-.1,3.39-1.36,5.21-1.52,2.19-3.82,3.81-6.48,4.59Z" fill="#06060f" stroke="#06060f" stroke-miterlimit="10" stroke-width="1.5"/><path d="m501.28,158.48c0-18.04-14.63-32.67-32.67-32.67s-32.67,14.63-32.67,32.67c0,14.63,9.62,27.02,22.88,31.18l6.32,41.74,32.2-26.83s-6.96-8.86-10.69-18.85c8.82-5.85,14.63-15.86,14.63-27.24Z" fill="#ffb6b6" stroke="#06060f" stroke-miterlimit="10" stroke-width="1.5"/><path d="m514.17,319.73l4.72-66.03c.41-5.73-.31-11.48-2.13-16.92l-13.98-41.93-41.17,13.22-17.37,39.74-9.46,17.34c-4.31,7.9-2.9,17.69,3.46,24.05l6,6-8.36,30.66.88-.03-1.18.15s-55.89,168.15-53.89,311.15h71.74l4.26-166,12.46,172.44,94.54-5.44-50.52-318.41Z" fill="#6c63ff" stroke="#06060f" stroke-miterlimit="10" stroke-width="1.5"/><path d="m511.77,201.4s-1.53,11.58-15.66,11.95q-28.67.77-28.67.77s24.24-58.99,14.27-52.34c-9.97,6.65-36.54-21.21-36.54-21.21l-7.84,14.71s-18.74-6.78,2.03-23.4c0,0,24.77-19.15,51.07-7.65,26.3,11.5,21.34,77.18,21.34,77.18Z" fill="#06060f" stroke="#06060f" stroke-miterlimit="10" stroke-width="1.5"/><path d="m395.82,332.74c-.38-7.37,6.53-13.72,15.44-14.18,5.09-.26,9.72,1.46,12.84,4.36h.2s52.79-5.48,52.79-5.48l-3.96-52.4c-1.46-10.14,1.38-20.35,11.36-22.65h0c12.37-2.85,24.15,6.58,24.1,19.27l-.3,66c-.04,9.38-7.69,16.94-17.06,16.88l-66.26-4.95c-2.8,3.2-7.23,5.39-12.32,5.65-8.91.46-16.44-5.14-16.82-12.51Z" fill="#ffb6b6" stroke="#06060f" stroke-miterlimit="10" stroke-width="1.5"/><polyline points="468.05 241.91 471.23 301.69 515.41 298.69 507.6 236.52" fill="#6c63ff" stroke="#06060f" stroke-miterlimit="10" stroke-width="1.5"/></svg>